<svg id="Capa_1" enable-background="new 0 0 512 512" height="512" viewBox="0 0 512 512" width="512" xmlns="http://www.w3.org/2000/svg"><path d="m0 73v366h512v-366zm241 225.686c-17.6-6.203-30.252-22.991-30.252-42.686s12.652-36.483 30.252-42.686zm30-85.372c17.6 6.203 30.252 22.991 30.252 42.686s-12.652 36.483-30.252 42.686zm-241-2.562h49v90.495h-49zm0 120.496h79v-150.496h-79v-77.752h211v79.253c-34.332 6.972-60.252 37.388-60.252 73.747s25.92 66.775 60.252 73.747v79.253h-211zm241 77.752v-79.253c34.332-6.972 60.252-37.388 60.252-73.747s-25.92-66.775-60.252-73.747v-79.253h211v77.752h-78.469v150.495h78.469v77.753zm211-198.248v90.495h-48.469v-90.495z"/></svg>