<svg height="512pt" viewBox="-22 0 512 512.00009" width="512pt" xmlns="http://www.w3.org/2000/svg"><path d="m273.121094 131.09375c1.78125-.074219 3.53125-.277344 5.242187-.578125-5.199219-12.285156-2.550781-27.03125 7.730469-36.714844 6.917969-6.523437 15.921875-9.453125 24.71875-8.867187-3.140625-19.710938-20.613281-34.378906-41.039062-33.519532-22.003907.921876-39.09375 19.511719-38.167969 41.511719.925781 22.003907 19.511719 39.09375 41.515625 38.167969zm0 0"/><path d="m448.941406 89.570312c-.925781-22.003906-19.511718-39.089843-41.515625-38.164062-22.003906.925781-39.089843 19.511719-38.164062 41.515625.921875 22.003906 19.511719 39.089844 41.511719 38.164063 22.003906-.925782 39.09375-19.511719 38.167968-41.515626zm0 0"/><path d="m466.109375 482.363281-34.09375-92.996093 23.257813-69.664063c3.058593-9.167969 4.769531-18.726563 5.082031-28.382813l3.714843-116.277343c.691407-18.910157-14.894531-34.429688-33.820312-33.632813-42.128906 2.183594-43.882812.863282-50.851562 3.488282l37.019531 5.9375-44.996094 7.164062-49.648437-52.679688c-6.765626-7.179687-18.015626-7.59375-25.289063-.988281-7.492187 6.804688-7.625 18.746094-.679687 26.113281l55.875 59.292969c4.105468 4.355469 10.09375 6.386719 15.992187 5.449219l54.429687-8.667969-52.105468 23.273438c-8.386719 3.746093-18.160156 1.65625-24.300782-4.835938-9.273437-9.847656-11.976562-12.71875-12.652343-13.4375.019531.023438-.003907 0-.132813-.136719.003906.003907.003906.003907.007813.007813-.023438-.023437-.042969-.042969-.054688-.058594.003907.003907.003907.003907.003907.003907-.003907-.003907-.007813-.007813-.011719-.011719-.015625-.015625-.019531-.019531-.011719-.011719l-5.15625 5.550781-52.597656-27.300781c-9.046875-4.695312-20.238282-.992188-24.648438 8.300781-4.203125 8.847657-.308594 19.457031 8.386719 23.96875l64.414063 33.4375c7.195312 3.734375 16.023437 2.226563 21.5625-3.742187l14.210937-15.304688-5.5 87.835938-45.53125 63.667968c-2.078125 2.902344-3.40625 6.273438-3.863281 9.816407l-14.296875 109.976562c-1.6875 12.96875 8.410156 24.480469 21.527343 24.476563 10.726563 0 20.050782-7.964844 21.46875-18.890625l13.59375-104.582031 52.019532-72.742188 10.683594 2.613281-20.667969 64.886719c-1.460938 4.585938-1.351563 9.523438.304687 14.042969l36.824219 100.453125c4.199219 11.453125 17.074219 17.253906 28.511719 12.625 10.910156-4.421875 16.070312-16.984375 12.019531-28.039063zm0 0"/><path d="m173.464844 482.019531h-143.484375v-452.039062l18.671875 87.511719c.753906 3.738281 4.039062 6.425781 7.851562 6.425781h61.160156c3.8125 0 7.097657-2.6875 7.851563-6.425781l21.796875-107.894532c1.003906-4.960937-2.792969-9.597656-7.855469-9.597656-5.59375 0-118.882812 0-124.464843 0-8.28125 0-14.992188 6.710938-14.992188 14.992188v482.015624c0 8.28125 6.710938 14.992188 14.992188 14.992188h158.476562c8.277344 0 14.988281-6.710938 14.988281-14.992188 0-8.277343-6.710937-14.988281-14.992187-14.988281zm0 0"/></svg>