<svg height="511pt" viewBox="1 -18 511.99975 511" width="511pt" xmlns="http://www.w3.org/2000/svg"><path d="m60.398438 357.21875c4.214843 0 8.136718-2.6875 9.507812-6.914062l.109375-.335938c1.742187-5.238281-1.097656-10.898438-6.339844-12.640625-5.238281-1.742187-10.898437 1.097656-12.640625 6.335937l-.148437.460938c-1.707031 5.253906 1.167969 10.894531 6.421875 12.601562 1.023437.332032 2.066406.492188 3.089844.492188zm0 0"/><path d="m453.15625 128.433594c-5.425781 1.019531-9 6.273437-7.980469 11.703125l.035157.199219c.902343 4.796874 5.089843 8.121093 9.796874 8.121093.617188 0 1.246094-.058593 1.875-.175781 5.425782-1.019531 8.992188-6.28125 7.972657-11.707031l-.035157-.179688c-1.015624-5.425781-6.222656-8.972656-11.664062-7.960937zm0 0"/><path d="m512 198.367188c0-3.304688-1.636719-6.398438-4.367188-8.261719-2.730468-1.859375-6.203124-2.253907-9.285156-1.046875l-11.042968 4.332031c-1.972657.777344-3.648438 2.15625-4.785157 3.941406l-39.4375 61.96875-70.039062 12.289063c-3.84375.675781-6.945313 3.527344-7.941407 7.300781l-23.457031 89.011719-13.777343-4.117188c-2.613282-.78125-5.433594-.460937-7.808594.886719l-80.539063 45.785156c2.921875-7.78125 4.890625-15.929687 5.792969-24.257812 2.113281-19.519531-1.613281-39.355469-10.53125-56.675781l20.140625-20.136719c1.65625.195312 3.324219.304687 4.992187.304687 7.574219 0 15.148438-2.035156 21.828126-6.089844l8.972656 8.972657c1.953125 1.953125 4.515625 2.929687 7.074218 2.929687 2.558594 0 5.117188-.976562 7.070313-2.929687 3.902344-3.90625 3.902344-10.238281 0-14.144531l-8.960937-8.960938c3.972656-6.515625 6.097656-14.015625 6.097656-21.84375 0-11.242188-4.375-21.808594-12.324219-29.757812-4.183594-4.179688-9.03125-7.289063-14.207031-9.339844-.027344-.109375-.046875-.21875-.078125-.328125l-24.386719-83.171875 15.636719 4.726562c-1.464844 28.253906 8.917969 55.460938 29.167969 75.707032 18.886718 18.890624 44 29.292968 70.707031 29.292968 26.710937 0 51.824219-10.40625 70.710937-29.292968 12.515625-12.515626 21.503906-28.132813 25.984375-45.164063 1.40625-5.339844-1.78125-10.808594-7.125-12.214844-5.339843-1.40625-10.808593 1.785157-12.214843 7.125-3.582032 13.609375-10.769532 26.097657-20.789063 36.113281-15.109375 15.113282-35.195313 23.433594-56.566406 23.433594-21.367188 0-41.457031-8.320312-56.566407-23.433594-14.996093-14.996093-23.230468-34.765624-23.4375-55.558593l12.171876 3.683593c1.140624 16.269532 8.117187 31.757813 19.75 43.390626 12.84375 12.84375 29.921874 19.917968 48.085937 19.917968 18.160156 0 35.238281-7.074218 48.082031-19.917968s19.914063-29.917969 19.914063-48.082032c0-18.164062-7.074219-35.238281-19.914063-48.082031-12.84375-12.84375-29.921875-19.917969-48.082031-19.917969-18.164063 0-35.242187 7.074219-48.082031 19.917969-1.144532 1.140625-2.25 2.328125-3.308594 3.550781l-12.40625-3.75c2.210938-2.914062 4.625-5.683594 7.230469-8.285156 15.105469-15.109375 35.195312-23.433594 56.5625-23.433594 21.371093 0 41.457031 8.324219 56.570312 23.433594 5.339844 5.339844 9.882813 11.367188 13.496094 17.910156 2.671875 4.835938 8.757813 6.589844 13.589844 3.917969s6.585937-8.753906 3.917969-13.589844c-4.523438-8.183593-10.199219-15.714843-16.863282-22.378906-18.886718-18.886719-44-29.289063-70.710937-29.289063-26.707031 0-51.820313 10.402344-70.707031 29.289063-4.988282 4.984375-9.40625 10.464844-13.21875 16.339844l-56.097657-16.964844-27.253906-27.253906 11.296875-11.296875c10.136719-10.136719 10.136719-26.632813 0-36.769532-10.136719-10.136718-26.632812-10.136718-36.769531 0l-29.679688 29.675782c-4.910156 4.914062-7.617187 11.441406-7.617187 18.386718 0 6.945313 2.707031 13.472657 7.617187 18.382813l31.769531 31.773437-90.546874 90.550782-14.117188-7.003906 7.125-7.125c10.136719-10.136719 10.136719-26.632813 0-36.769532-10.140625-10.136718-26.632812-10.132812-36.769531 0l-33.941407 33.941406c-10.136718 10.136719-10.136718 26.632813 0 36.769532 4.898438 4.898437 11.429688 7.59375 18.386719 7.59375s13.484375-2.695313 18.382813-7.59375l11.894531-11.890625 17.304687 8.582031c-1.433593 5.160156-1.28125 10.742188.644532 15.960938l18.0625 61.613281c-6.148438 3.914062-11.878906 8.5-17.089844 13.707031-3.902344 3.90625-3.902344 10.238281 0 14.140625 3.90625 3.90625 10.238281 3.90625 14.144531 0 2.777344-2.777344 5.742188-5.339844 8.863281-7.664063l.710938 2.425782 2.933594 10.011718c-1.390625 1.183594-2.734375 2.425782-4.023438 3.714844-26.511718 26.511719-26.511718 69.652344 0 96.164063 12.84375 12.84375 29.921875 19.917969 48.082032 19.917969 18.164062 0 35.242187-7.074219 48.082031-19.917969 18.230469-18.226563 24.4375-45.421875 16.441406-69.566407l9.347656-9.347656c12.460938 29.578125 6.078125 64.015625-17.304687 87.398438-31.1875 31.191406-81.941406 31.191406-113.132813 0-15.375-15.375-23.695312-35.820313-23.425781-57.566406.066406-5.519532-4.355469-10.054688-9.878906-10.121094-.039063 0-.082032 0-.125 0-5.464844 0-9.929688 4.394531-9.996094 9.875-.335938 27.179687 10.0625 52.734375 29.28125 71.953125 19.496094 19.496093 45.101562 29.242187 70.710938 29.242187 18.667968 0 37.335937-5.1875 53.640624-15.550781v5.597656c0 5.523438 4.476563 10 9.996094 10h292.464844c5.519531 0 10-4.476562 10-10zm-486.011719 5.910156c-1.617187 0-3.121093-.613282-4.242187-1.734375-2.300782-2.300781-2.300782-6.1875 0-8.488281l33.9375-33.9375c2.296875-2.300782 6.183594-2.300782 8.484375 0 2.300781 2.296874 2.300781 6.183593 0 8.484374l-33.941407 33.941407c-1.117187 1.121093-2.625 1.734375-4.238281 1.734375zm173.71875 86.78125c-17.261719-11.070313-37.324219-16.476563-57.90625-15.601563l-13.953125-47.59375 72.207032-72.207031 25.558593 87.183594c.027344.089844.066407.175781.09375.265625-5.113281 7.101562-7.882812 15.597656-7.882812 24.519531 0 1.6875.113281 3.359375.308593 5.011719zm-23.441406 23.441406c-7.824219-3.914062-16.292969-6.257812-25.046875-6.929688l-3.578125-12.195312c13.214844.257812 26.042969 3.757812 37.507813 10.246094zm-15.277344 15.28125-2.519531 2.519531-1.039062-3.542969c1.199218.292969 2.386718.632813 3.558593 1.023438zm119.914063-55.308594-13.921875-13.921875c-3.90625-3.902343-10.234375-3.902343-14.140625 0-3.90625 3.90625-3.90625 10.238281 0 14.144531l13.90625 13.90625c-7.648438 2.480469-16.386719.707032-22.453125-5.359374-4.171875-4.171876-6.46875-9.71875-6.46875-15.617188 0-5.902344 2.296875-11.449219 6.46875-15.621094 8.609375-8.609375 22.625-8.609375 31.234375 0 4.171875 4.171875 6.46875 9.71875 6.46875 15.621094.003906 2.363281-.382813 4.664062-1.09375 6.847656zm85.613281-167.722656c12.820313 0 24.875 4.996094 33.9375 14.0625 9.066406 9.0625 14.058594 21.117188 14.058594 33.941406 0 12.820313-4.988281 24.871094-14.058594 33.9375-9.066406 9.066406-21.117187 14.058594-33.9375 14.058594s-24.875-4.992188-33.941406-14.058594c-6.332031-6.332031-10.695313-14.28125-12.738281-22.851562l45.394531 13.726562c6.628906 2.015625 13.648437 1.332032 19.761719-1.929687 6.109374-3.257813 10.589843-8.703125 12.605468-15.332031 2.015625-6.625 1.332032-13.644532-1.929687-19.757813-3.257813-6.113281-8.703125-10.589844-15.347657-12.613281l-43.253906-13.078125c8.386719-6.542969 18.640625-10.105469 29.449219-10.105469zm-169.453125-7.5-38.839844-38.84375c-1.132812-1.132812-1.757812-2.640625-1.757812-4.242188 0-1.601562.625-3.109374 1.757812-4.242187l29.679688-29.683594c2.339844-2.335937 6.144531-2.335937 8.484375 0 2.339843 2.339844 2.339843 6.148438 0 8.484375l-18.367188 18.371094c-3.90625 3.902344-3.90625 10.234375 0 14.140625l36.097657 36.097656c1.164062 1.164063 2.601562 2.023438 4.175781 2.5l156.21875 47.238281c1.519531.460938 2.765625 1.488282 3.511719 2.886719.746093 1.398438.902343 3.003907.441406 4.523438-.460938 1.515625-1.488282 2.761719-2.886719 3.507812-1.398437.75-3.007813.90625-4.539063.4375l-59.558593-18.007812s-.003907-.003907-.007813-.003907l-31.230468-9.445312s0 0-.003907 0l-41.136719-12.4375c-3.519531-1.066406-7.328124-.117188-9.9375 2.46875-2.605468 2.585938-3.585937 6.390625-2.554687 9.914062l27.289063 93.070313c-3.910157.558594-7.753907 1.675781-11.410157 3.332031l-27.988281-95.46875c-.992188-3.386718-3.699219-6-7.121094-6.875-3.414062-.871094-7.046875.121094-9.546875 2.617188l-88.320312 88.320312c-2.585938 2.585938-3.554688 6.375-2.523438 9.886719l37.03125 126.308594c.992188 3.386719 3.699219 6 7.121094 6.875.816406.207031 1.648437.308593 2.472656.308593 2.621094 0 5.171875-1.027343 7.074219-2.925781l65.523438-65.527343c1.195312 1.589843 2.507812 3.113281 3.941406 4.542968 1.441406 1.441406 2.964844 2.75 4.550781 3.9375l-83.808594 83.808594c-.277343.222656-.542969.460938-.800781.71875-.699219.703125-1.546875 1.207031-2.515625 1.492188-1.527344.445312-3.128906.277343-4.523437-.480469-1.394532-.761719-2.40625-2.015625-2.851563-3.527344l-46.90625-159.984375c-.078125-.277344-.171875-.554688-.277344-.820312-.867187-2.222657-.339843-4.75 1.347657-6.433594l102.695312-102.699219c3.90625-3.902344 3.90625-10.234375 0-14.140625zm-17.222656 310.054688c-9.066406 9.066406-21.117188 14.0625-33.941406 14.0625-12.820313 0-24.871094-4.996094-33.9375-14.0625-17.398438-17.394532-18.613282-44.921876-3.671876-63.746094l12.726563 43.414062c1.960937 6.644532 6.390625 12.132813 12.476563 15.445313 3.859374 2.101562 8.09375 3.171875 12.371093 3.171875 2.464844 0 4.941407-.355469 7.371094-1.070313 3.71875-1.097656 7.160156-3.023437 10.027344-5.605469.355469-.269531.695312-.566406 1.023437-.894531l29.355469-29.355469c1.339844 14.035157-3.519531 28.359376-13.800781 38.640626zm177.25 46.058593 14.214844-15.160156c3.773437-4.03125 3.570312-10.359375-.457032-14.136719s-10.359375-3.570312-14.136718.457032l-27.035157 28.839843h-110.136719v-10.542969l106.691407-60.652343 92.90625 27.777343c5.285156 1.578126 10.863281-1.425781 12.445312-6.71875 1.582031-5.289062-1.425781-10.863281-6.71875-12.445312l-64.050781-19.148438 21.996094-83.449218 68.070312-11.945313c2.765625-.484375 5.199219-2.113281 6.707032-4.480469l34.414062-54.074218v113.292968l-39.933594-17.75c-5.050781-2.242187-10.957031.03125-13.199218 5.078126-2.242188 5.046874.027343 10.957031 5.074218 13.199218l48.058594 21.359375v100.5zm0 0"/></svg>