<svg height="480pt" viewBox="0 -80 480.13651 480" width="480pt" xmlns="http://www.w3.org/2000/svg"><path d="m384.085938 128.132812c-5.804688.003907-11.59375.539063-17.296876 1.597657l-25.601562-70.589844c10.308594-3.289063 21.394531-3.199219 31.648438.253906 5.375 5.394531.609374 22.210938-3.007813 29.539063-3.949219 7.90625-.742187 17.519531 7.167969 21.46875 7.910156 3.953125 17.523437.742187 21.472656-7.167969 2.144531-4.316406 20.480469-42.988281-3.007812-66.460937-20.578126-20.578126-63.394532-9.28125-78.511719-4.433594l-129.714844 14.402344-4.796875-14.675782h25.648438c8.835937 0 16-7.160156 16-16 0-8.835937-7.164063-15.9999998-16-15.9999998h-48c-5.140626.0039063-9.96875 2.4804688-12.972657 6.6484378-3.003906 4.171875-3.820312 9.53125-2.195312 14.410156l13.902343 41.710938-34.71875 69.425781c-38.207031-11.695313-79.664062 1.496093-104.085937 33.121093-24.417969 31.625-26.699219 75.066407-5.71875 109.074219 20.976563 34.007813 60.824219 51.464844 100.042969 43.828125 39.222656-7.632812 69.613281-38.761718 76.304687-78.152344h49.441407c1.433593-.015624 2.859374-.222656 4.238281-.609374.464843-.128907.878906-.351563 1.328125-.511719.875-.3125 1.722656-.703125 2.527344-1.167969.480468-.289062.914062-.625 1.375-.960938.683593-.480468 1.324218-1.015624 1.921874-1.597656.402344-.410156.78125-.84375 1.136719-1.296875.222657-.289062.511719-.511719.71875-.816406.28125-.472656.535157-.964844.753907-1.472656.160156-.304688.414062-.558594.558593-.878907l63.839844-140.398437 18.304687 50.300781c-41.84375 23.867188-59.472656 75.078125-41.191406 119.644532 18.28125 44.566406 66.796875 68.644531 113.34375 56.25 46.550782-12.394532 76.671875-57.40625 70.371094-105.164063-6.296875-47.753906-47.058594-83.417969-95.226562-83.320313zm-209.601563-24.976562 10.511719 26.257812 31.457031 78.71875h-25.808594c-4.195312-24.621093-17.820312-46.636718-37.984375-61.375zm-78.398437 184.976562c-24.527344.074219-46.9375-13.871093-57.703126-35.910156-10.765624-22.035156-7.992187-48.285156 7.144532-67.582031 15.132812-19.300781 39.964844-28.253906 63.933594-23.050781l-27.695313 55.390625c-2.480469 4.960937-2.214844 10.851562.703125 15.566406 2.917969 4.71875 8.070312 7.589844 13.617188 7.585937h16c7.113281.007813 13.375-4.683593 15.371093-11.507812 2-6.828125-.753906-14.15625-6.75-17.980469l17.265625-34.511719c20.214844 17.421876 27.433594 45.597657 18.085938 70.597657-9.351563 24.996093-33.285156 41.519531-59.972656 41.402343zm144.941406-104.738281-14.09375-35.199219-28.175782-70.398437 95.101563-10.578125zm143.058594 104.738281c-28.003907-.050781-52.71875-18.300781-61.011719-45.042968-8.296875-26.746094 1.757812-55.777344 24.816406-71.660156l21.167969 58.175781c1.804687 5.570312 6.503906 9.710937 12.257812 10.792969 5.753906 1.085937 11.640625-1.058594 15.347656-5.589844 3.707032-4.527344 4.644532-10.722656 2.445313-16.148438l-21.058594-57.917968c2.015625-.195313 3.96875-.609376 6.035157-.609376 35.34375 0 64 28.652344 64 64 0 35.34375-28.65625 64-64 64zm0 0"/></svg>