<?xml version='1.0' encoding='iso-8859-1'?>
<!DOCTYPE svg PUBLIC '-//W3C//DTD SVG 1.1//EN' 'http://www.w3.org/Graphics/SVG/1.1/DTD/svg11.dtd'>
<svg version="1.1" xmlns="http://www.w3.org/2000/svg" viewBox="0 0 292.763 292.763" xmlns:xlink="http://www.w3.org/1999/xlink" enable-background="new 0 0 292.763 292.763">
  <g>
    <circle cx="92.319" cy="25.907" r="25.907"/>
    <path d="m251.683,44.978h-34.856v-4.5c0-3.313-2.687-6-6-6-3.313,0-6,2.687-6,6v4.5h-11.422c0.806,0.735 1.574,1.521 2.285,2.369 8.659,10.324 7.365,25.801-3.027,34.516-9.802,8.221-15.892,13.329-25.676,21.536 2.033,2.605 5.193,4.286 8.753,4.286h6.287c6.134,0 11.107-4.973 11.107-11.107v-11.007c10.98,0 20.083-9.188 19.445-20.593h39.106c5.522,0 10-4.478 10-10-0.002-5.522-4.48-10-10.002-10z"/>
    <path d="m186.495,55.058c-4.332-5.168-12.237-6.044-17.603-1.549-0.002,0.002-0.004,0.003-0.007,0.005l-33.129,27.786-45.604-13.428 33.108,1.033c-2.935-5.549-8.759-9.334-15.473-9.334h-31.209c-9.665,0-17.501,7.835-17.501,17.501v89.604l-1.87,44.708-24.993,60.661c-3.155,7.659 0.495,16.427 8.155,19.583 7.653,3.155 16.425-0.492 19.583-8.155l26-63.105c0.666-1.617 1.045-3.339 1.118-5.087 1.261-30.127 1.733-41.294 1.906-45.52 0.066-1.618 1.397-2.898 3.017-2.898h0.002c1.291,0 2.445,0.806 2.889,2.018l14.835,40.447-13.834,65.324c-1.716,8.104 3.463,16.065 11.567,17.782 8.107,1.715 16.065-3.465 17.782-11.567l14.728-69.546c0.584-2.758 0.379-5.625-0.592-8.272l-14.083-38.397v-49.263l-40.524-23.042 50.36,14.829c4.099,1.206 8.465,0.185 11.564-2.414l38.264-32.093c5.286-4.433 5.982-12.319 1.544-17.611z"/>
  </g>
</svg>
