<svg id="Layer_1" enable-background="new 0 0 511.851 511.851" height="512" viewBox="0 0 511.851 511.851" width="512" xmlns="http://www.w3.org/2000/svg"><g><path d="m178.75 362.707c6.449 4.42 8.622 5.909 15.818 5.909 7.195 0 9.367-1.489 15.816-5.909 8.782-6.019 22.054-15.116 45.534-15.116 23.481 0 36.752 9.096 45.535 15.116 6.449 4.42 8.622 5.909 15.818 5.909 7.197 0 9.37-1.489 15.819-5.91 6.579-4.509 15.678-10.745 29.701-13.59l-41.219-76.174 34.492-94.305 87.426-75.017c11.853-10.171 13.217-28.025 3.046-39.878-10.172-11.853-28.025-13.217-39.878-3.046l-93.032 79.828c-3.675 3.154-6.48 7.2-8.143 11.748l-42.212 115.408-.214.635-151.67 82.3c6.112-1.819 13.293-3.024 21.829-3.024 23.48 0 36.752 9.097 45.534 15.116z"/><ellipse cx="404.755" cy="262.623" rx="56.875" ry="56.875" transform="matrix(.994 -.112 .112 .994 -26.803 46.856)"/><path d="m35.244 393.057c8.03 5.504 18.025 12.354 36.619 12.354 18.595 0 28.589-6.85 36.619-12.354 7.069-4.845 12.652-8.671 24.734-8.671 12.081 0 17.664 3.826 24.732 8.671 8.031 5.504 18.025 12.354 36.62 12.354 18.594 0 28.588-6.85 36.618-12.354 7.068-4.845 12.651-8.671 24.732-8.671s17.664 3.827 24.733 8.671c8.03 5.504 18.025 12.354 36.619 12.354 18.595 0 28.59-6.85 36.62-12.354 7.069-4.845 12.652-8.671 24.734-8.671 12.083 0 17.666 3.827 24.736 8.672 8.031 5.504 18.026 12.353 36.622 12.353s28.591-6.85 36.621-12.353c7.069-4.845 12.653-8.672 24.736-8.672 5.806 0 10.513-4.707 10.513-10.513s-4.707-10.513-10.513-10.513c-18.596 0-28.591 6.85-36.622 12.353-7.069 4.845-12.653 8.672-24.735 8.672-12.083 0-17.666-3.827-24.736-8.672-8.031-5.504-18.026-12.353-36.622-12.353-18.595 0-28.59 6.85-36.62 12.353-7.069 4.845-12.652 8.672-24.734 8.672-12.081 0-17.664-3.827-24.733-8.671-8.03-5.504-18.025-12.354-36.619-12.354s-28.589 6.85-36.619 12.354c-7.068 4.845-12.651 8.671-24.731 8.671-12.081 0-17.664-3.827-24.733-8.671-8.03-5.504-18.024-12.354-36.619-12.354s-28.59 6.85-36.62 12.354c-7.069 4.845-12.652 8.671-24.733 8.671s-17.664-3.826-24.731-8.671c-8.03-5.504-18.025-12.354-36.619-12.354-5.806 0-10.513 4.707-10.513 10.513s4.707 10.513 10.513 10.513c12.081-.001 17.663 3.826 24.731 8.671z"/><path d="m353.89 445.62c-8.03 5.504-18.025 12.354-36.62 12.354s-28.589-6.85-36.619-12.354c-7.069-4.845-12.652-8.671-24.733-8.671s-17.664 3.826-24.732 8.671c-8.03 5.504-18.024 12.354-36.618 12.354-18.595 0-28.589-6.85-36.62-12.354-7.068-4.845-12.651-8.671-24.732-8.671s-17.665 3.827-24.734 8.671c-8.03 5.504-18.025 12.354-36.619 12.354-33.929 0-35.702-21.025-61.35-21.025-5.806 0-10.513-4.707-10.513-10.513s4.707-10.513 10.513-10.513c33.929 0 35.702 21.025 61.35 21.025 25.098 0 27.837-21.025 61.353-21.025 18.595 0 28.589 6.85 36.619 12.354 7.069 4.845 12.652 8.671 24.733 8.671 12.08 0 17.663-3.826 24.731-8.671 8.03-5.504 18.024-12.354 36.619-12.354s28.589 6.85 36.619 12.354c7.069 4.845 12.652 8.671 24.733 8.671 12.082 0 17.665-3.827 24.734-8.672 8.03-5.504 18.025-12.353 36.62-12.353 18.596 0 28.591 6.85 36.622 12.353 7.069 4.845 12.653 8.672 24.736 8.672 12.082 0 17.666-3.827 24.735-8.672 8.031-5.504 18.026-12.353 36.622-12.353 5.806 0 10.513 4.707 10.513 10.513s-4.707 10.513-10.513 10.513c-12.083 0-17.666 3.827-24.736 8.672-8.031 5.504-18.026 12.353-36.621 12.353-18.596 0-28.591-6.85-36.622-12.353-7.069-4.845-12.653-8.672-24.736-8.672-12.081 0-17.665 3.827-24.734 8.671z"/><path d="m403.359 445.621c8.031 5.504 18.026 12.353 36.622 12.353s28.591-6.85 36.621-12.353c7.069-4.845 12.653-8.672 24.736-8.672 5.806 0 10.513-4.707 10.513-10.513s-4.707-10.513-10.513-10.513c-18.596 0-28.591 6.85-36.622 12.353-7.069 4.845-12.653 8.672-24.735 8.672-12.083 0-17.666-3.827-24.736-8.672-8.031-5.504-18.026-12.353-36.622-12.353-18.595 0-28.59 6.85-36.62 12.353-7.069 4.845-12.652 8.672-24.734 8.672-12.081 0-17.664-3.827-24.733-8.671-8.03-5.504-18.025-12.354-36.619-12.354s-28.589 6.85-36.619 12.354c-7.068 4.845-12.651 8.671-24.731 8.671-12.081 0-17.664-3.827-24.733-8.671-8.03-5.504-18.024-12.354-36.619-12.354-33.931 0-35.704 21.025-61.353 21.025-12.081 0-17.664-3.826-24.731-8.671-8.03-5.504-18.025-12.354-36.619-12.354-5.805.001-10.512 4.707-10.512 10.513s4.707 10.513 10.513 10.513c25.097 0 27.836 21.025 61.35 21.025 18.595 0 28.589-6.85 36.619-12.354 7.069-4.845 12.652-8.671 24.734-8.671 12.081 0 17.664 3.826 24.732 8.671 8.031 5.504 18.025 12.354 36.62 12.354 18.594 0 28.588-6.85 36.618-12.354 7.068-4.845 12.651-8.671 24.732-8.671s17.664 3.827 24.733 8.671c8.03 5.504 18.025 12.354 36.619 12.354 18.595 0 28.59-6.85 36.62-12.354 7.069-4.845 12.652-8.671 24.734-8.671 12.083 0 17.666 3.827 24.735 8.672z"/></g></svg>