<?xml version="1.0" encoding="iso-8859-1"?>
<!-- Generator: Adobe Illustrator 19.0.0, SVG Export Plug-In . SVG Version: 6.00 Build 0)  -->
<svg version="1.1" id="Layer_1" xmlns="http://www.w3.org/2000/svg" xmlns:xlink="http://www.w3.org/1999/xlink" x="0px" y="0px"
	 viewBox="0 0 511.999 511.999" style="enable-background:new 0 0 511.999 511.999;" xml:space="preserve">
<g>
	<g>
		<circle cx="238.461" cy="82.93" r="41.83"/>
	</g>
</g>
<g>
	<g>
		<path d="M442.348,50.332c-1.22-1.352-2.607-2.463-4.099-3.337C441.843,22.036,422.48,0,397.587,0
			c-22.694,0-41.092,18.397-41.092,41.092c0,17.879,11.422,33.083,27.364,38.733l-33.781,30.488l-141.702,44.532l14.706,3.954
			l-71.107,3.812l-59.804-40.41c-7.913-5.346-18.663-3.266-24.009,4.646c-5.347,7.913-3.266,18.663,4.646,24.009l64.615,43.661
			c2.865,1.936,6.238,2.964,9.681,2.964c0.309,0,0.617-0.009,0.927-0.025l76.904-4.123l-22.297,5.398l40.109,127.343l-6.216,48.499
			l-78.576,35.604c-10.557,4.783-15.236,17.219-10.453,27.774c4.785,10.559,17.221,15.235,27.774,10.453l89.24-40.437
			c6.629-3.004,11.229-9.228,12.153-16.446l10.596-82.666l16.256-6.849l36.513,66.547l-43.345,115.058
			c-4.085,10.845,1.394,22.949,12.239,27.035c10.844,4.085,22.949-1.394,27.035-12.239l46.748-124.089
			c2.159-5.733,1.707-12.122-1.24-17.492l-39.801-72.538L303.56,163.295l61.252-21.5c2.164-0.76,4.155-1.942,5.858-3.479
			l70.427-63.561C448.186,68.356,448.747,57.422,442.348,50.332z"/>
	</g>
</g>
<g>
</g>
<g>
</g>
<g>
</g>
<g>
</g>
<g>
</g>
<g>
</g>
<g>
</g>
<g>
</g>
<g>
</g>
<g>
</g>
<g>
</g>
<g>
</g>
<g>
</g>
<g>
</g>
<g>
</g>
</svg>
