<?xml version="1.0" encoding="iso-8859-1"?>
<!-- Generator: Adobe Illustrator 18.0.0, SVG Export Plug-In . SVG Version: 6.00 Build 0)  -->
<!DOCTYPE svg PUBLIC "-//W3C//DTD SVG 1.1//EN" "http://www.w3.org/Graphics/SVG/1.1/DTD/svg11.dtd">
<svg version="1.1" id="Capa_1" xmlns="http://www.w3.org/2000/svg" xmlns:xlink="http://www.w3.org/1999/xlink" x="0px" y="0px"
	 viewBox="0 0 297 297" style="enable-background:new 0 0 297 297;" xml:space="preserve" fill="#1166e4">
<path d="M294.721,284.571l-7.071-28.283c-7.003-28.016-29.824-49.775-58.14-55.438l-27.604-5.521
	c-5.374-1.074-9.275-5.833-9.275-11.314v-18.182c11.365-10.775,19.142-24.744,22.276-40.417l3.412-17.061h4.129
	c5.523,0,10.001-4.478,10.001-10.001V73.097c1.431-3.837,2.226-7.982,2.226-12.313c0-18.521-14.301-33.764-32.439-35.27
	C191.857,10.032,171.166,0,148.5,0s-43.357,10.032-53.736,25.513c-18.138,1.506-32.439,16.749-32.439,35.27
	c0,4.331,0.795,8.476,2.226,12.313v25.256c0,5.523,4.478,10.001,10.001,10.001h4.129l3.412,17.061
	c3.134,15.672,10.91,29.641,22.276,40.416v18.182c0,5.481-3.901,10.24-9.277,11.314l-0.069,0.014
	c-0.02,0.004-0.041,0.008-0.061,0.012l-27.472,5.495c-28.316,5.663-51.138,27.423-58.141,55.437l-7.071,28.284
	c-1.34,5.359,1.918,10.79,7.276,12.129c0.815,0.204,1.631,0.301,2.434,0.301c4.481,0,8.559-3.034,9.695-7.577l7.071-28.285
	c3.515-14.062,12.465-25.973,24.419-33.427v59.287c0,5.523,4.478,10.001,10.001,10.001s10.001-4.478,10.001-10.001V220.11
	l13.94-2.789l0.038,7.212c0.112,21.267,13.743,40.073,33.918,46.797l24.265,8.089c1.027,0.343,2.094,0.514,3.163,0.514
	c1.068,0,2.136-0.171,3.163-0.513l24.117-8.039c20.287-6.764,33.917-25.674,33.917-47.058v-7.038l14.127,2.826v66.886
	c0,5.523,4.478,10.001,10.001,10.001s10.001-4.478,10.001-10.001V227.71c11.954,7.454,20.904,19.366,24.419,33.429l7.071,28.284
	c1.136,4.545,5.214,7.577,9.695,7.577c0.803,0,1.619-0.097,2.434-0.301C292.803,295.36,296.061,289.93,294.721,284.571z
	 M84.554,88.351V76.086h127.893v12.265H84.554z M97.718,45.394c0.549,0,1.128,0.033,1.721,0.1c4.272,0.468,8.367-1.828,10.177-5.725
	c5.408-11.637,21.397-19.765,38.884-19.765s33.476,8.128,38.884,19.765c1.81,3.896,5.906,6.19,10.177,5.725
	c0.593-0.066,1.172-0.1,1.721-0.1c6.846,0,12.657,4.496,14.649,10.689H83.068C85.061,49.89,90.872,45.394,97.718,45.394z
	 M101.707,121.492l-2.628-13.139h98.841l-2.628,13.139c-2.961,14.807-11.512,27.574-24.077,35.951l-9.409,6.272
	c-8.084,5.389-18.531,5.388-26.615,0l-9.409-6.272C113.22,149.066,104.669,136.299,101.707,121.492z M169.453,252.405l-20.953,6.984
	l-21.103-7.035c-12.039-4.012-20.173-15.236-20.24-27.926l-0.065-12.295c10.363-5.277,17.279-16.056,17.279-28.12v-3.479
	c7.347,4.821,15.737,7.236,24.128,7.236s16.781-2.415,24.128-7.236v3.479c0,11.981,6.822,22.692,17.065,28.008v12.301
	C189.693,237.084,181.559,248.369,169.453,252.405z"/>
<g>
</g>
<g>
</g>
<g>
</g>
<g>
</g>
<g>
</g>
<g>
</g>
<g>
</g>
<g>
</g>
<g>
</g>
<g>
</g>
<g>
</g>
<g>
</g>
<g>
</g>
<g>
</g>
<g>
</g>
</svg>
