<?xml version="1.0" encoding="iso-8859-1"?>
<!-- Generator: Adobe Illustrator 19.0.0, SVG Export Plug-In . SVG Version: 6.00 Build 0)  -->
<svg version="1.1" id="Layer_1" xmlns="http://www.w3.org/2000/svg" xmlns:xlink="http://www.w3.org/1999/xlink" x="0px" y="0px"
	 viewBox="0 0 512 512" style="enable-background:new 0 0 512 512;" xml:space="preserve">
<g>
	<g>
		<g>
			<path d="M256,250.719c-59.095,0-107.172,48.048-107.172,107.107S196.905,464.933,256,464.933
				c59.095,0,107.172-48.048,107.172-107.107S315.094,250.719,256,250.719z M256,444.02c-47.565,0-86.26-38.667-86.26-86.196
				s38.696-86.196,86.26-86.196s86.26,38.667,86.26,86.196C342.26,405.354,303.564,444.02,256,444.02z" fill="#1166e4"/>
			<path d="M510.777,11.057c-1.814-3.415-5.366-5.768-9.232-5.768H324.945c-3.474,0-6.722,1.946-8.667,4.826l-60.222,89.33
				l-60.341-89.394c-1.945-2.875-5.189-4.764-8.662-4.764H10.456c-3.869,0-7.42,2.356-9.235,5.772
				c-1.814,3.417-1.593,7.665,0.572,10.87l153.112,226.567c-29.437,27.22-47.9,66.157-47.9,109.302
				c0,82.104,66.839,148.915,148.995,148.915s148.995-66.79,148.995-148.895c0-43.077-18.406-81.93-47.763-109.143L510.21,21.921
				C512.373,18.717,512.592,14.471,510.777,11.057z M431.422,26.2L303.206,216.368c-14.268-4.775-29.493-7.55-45.302-7.75
				L380.962,26.2H431.422z M330.503,26.2h25.23L231.301,210.762c-10.83,1.813-21.267,4.687-31.177,8.709L330.503,26.2z
				 M181.503,26.2l61.943,91.818l-12.591,18.543L156.289,26.2H181.503z M131.044,26.2l87.202,129.153l-25.211,37.24L80.596,26.2
				H131.044z M30.144,26.2h25.209l125.071,185.186l-12.617,18.582L30.144,26.2z M384.083,357.826
				c0,70.574-57.458,127.99-128.084,127.99s-128.084-57.416-128.084-127.99S185.374,229.836,256,229.836
				S384.083,287.252,384.083,357.826z M340.882,235.304c-5.719-3.976-11.728-7.675-17.99-10.832L456.652,26.2h25.22L340.882,235.304
				z" fill="#1166e4"/>
		</g>
	</g>
</g>
<g>
</g>
<g>
</g>
<g>
</g>
<g>
</g>
<g>
</g>
<g>
</g>
<g>
</g>
<g>
</g>
<g>
</g>
<g>
</g>
<g>
</g>
<g>
</g>
<g>
</g>
<g>
</g>
<g>
</g>
</svg>
